<?xml version="1.0" standalone="no"?><!DOCTYPE svg PUBLIC "-//W3C//DTD SVG 1.1//EN" "http://www.w3.org/Graphics/SVG/1.1/DTD/svg11.dtd"><svg t="1514866135611" class="icon" style="" viewBox="0 0 1194 1024" version="1.1" xmlns="http://www.w3.org/2000/svg" p-id="2007" xmlns:xlink="http://www.w3.org/1999/xlink" width="233.203125" height="200"><defs><style type="text/css"></style></defs><path d="M1171.24224 425.940252H750.701673c-12.922381 0-23.380431 11.877942-23.380431 26.527403v530.404699c0 14.649461 10.45805 26.534229 23.380431 26.53423h420.540567c12.922381 0 23.380431-11.877942 23.380431-26.53423V452.467655c0-14.649461-10.45805-26.527403-23.380431-26.527403m-305.017347 513.557137c0 10.512661-7.898148 19.032012-17.659905 19.032012h-53.020673c-9.768583 0-17.680384-8.519351-17.680384-19.032012v-38.070851c0-10.512661 7.911801-19.045665 17.680384-19.045665h53.020673c9.761757 0 17.659905 8.533004 17.659905 19.045665v38.070851z m0-114.164767c0 10.464876-7.898148 18.936442-17.659905 18.936443h-53.020673c-9.768583 0-17.680384-8.478393-17.680384-18.936443v-37.879711c0-10.478529 7.911801-18.943269 17.680384-18.943269h53.020673c9.761757 0 17.659905 8.471566 17.659905 18.943269v37.879711z m0-113.966801c0 10.53314-7.898148 19.045665-17.659905 19.045665h-53.020673c-9.768583 0-17.680384-8.512525-17.680384-19.045665v-38.057197c0-10.512661 7.911801-19.045665 17.680384-19.045665h53.020673c9.761757 0 17.659905 8.533004 17.659905 19.045665v38.057197z m138.94461 228.131568c0 10.512661-7.918628 19.032012-17.680384 19.032012h-53.020673c-9.761757 0-17.673558-8.519351-17.673558-19.032012v-38.070851c0-10.512661 7.911801-19.045665 17.673558-19.045665h53.020673c9.775409 0 17.680384 8.533004 17.680384 19.045665v38.070851z m0-114.164767c0 10.464876-7.918628 18.936442-17.680384 18.936443h-53.020673c-9.761757 0-17.673558-8.478393-17.673558-18.936443v-37.879711c0-10.478529 7.911801-18.943269 17.673558-18.943269h53.020673c9.775409 0 17.680384 8.471566 17.680384 18.943269v37.879711z m0-113.966801c0 10.53314-7.918628 19.045665-17.680384 19.045665h-53.020673c-9.761757 0-17.673558-8.512525-17.673558-19.045665v-38.057197c0-10.512661 7.911801-19.045665 17.673558-19.045665h53.020673c9.775409 0 17.680384 8.533004 17.680384 19.045665v38.057197z m138.937784 228.131568c0 10.512661-7.911801 19.032012-17.680384 19.032012h-53.034326c-9.761757 0-17.680384-8.519351-17.680384-19.032012v-38.070851c0-10.512661 7.918628-19.045665 17.680384-19.045665h53.034326c9.761757 0 17.680384 8.533004 17.680384 19.045665v38.070851z m0-114.164767c0 10.464876-7.911801 18.936442-17.680384 18.936443h-53.034326c-9.761757 0-17.680384-8.478393-17.680384-18.936443v-37.879711c0-10.478529 7.918628-18.943269 17.680384-18.943269h53.034326c9.761757 0 17.680384 8.471566 17.680384 18.943269v37.879711z m0-113.966801c0 10.53314-7.911801 19.045665-17.680384 19.045665h-53.034326c-9.761757 0-17.680384-8.512525-17.680384-19.045665v-38.057197c0-10.512661 7.918628-19.045665 17.680384-19.045665h53.034326c9.761757 0 17.680384 8.533004 17.680384 19.045665v38.057197z m0.034132-120.540627a25.325956 25.325956 0 0 1-25.257692 25.373741H803.128449c-13.939515 0-25.250865-11.372788-25.250865-25.373741V489.378017c0-14.014606 11.31135-25.387393 25.250865-25.387394h315.755278c13.953168 0 25.250865 11.365961 25.250866 25.387394l0.006826 101.447177zM369.528973 2.129838c-26.41818 0.634855-79.855264 4.252849-94.661733 9.734451-14.820121 5.481602-39.756972 23.476-16.376541 60.249834 23.380431 36.78066 97.412773 143.183806 97.412773 143.183806h271.957076s94.30676-135.353922 100.532439-149.443618c6.232506-14.076043 16.356062-46.173791-20.253938-53.211812C671.508569 5.611303 647.349929-2.887569 627.075511 0.955696c-20.253938 3.856918-50.535863 27.776634-128.575303 31.114746C422.153715 35.340289 410.057328 1.194621 369.528973 2.129838z m321.318797 341.2792c-37.169765-32.978354-61.881345-49.764479-61.881345-49.764479H349.582222s-218.588256 145.538916-336.637245 443.654768c-27.510405 69.472305-8.266774 162.051985 30.38432 210.075731 68.967151 85.691839 157.198412 76.285055 165.977167 76.285055H690.834117v-680.251075h0.013653z m-175.568263 517.789506v59.198569h-49.348069v-58.945992c-64.536816-6.635264-104.4781-44.364794-119.905772-112.983799l76.319188-20.02184c7.038022 43.183826 30.438932 64.789392 70.230036 64.789392 18.567817 0 32.30254-4.566864 41.033509-13.850772 8.724143-9.290735 13.147653-20.363161 13.147653-33.463028 0-13.536757-4.423509-23.851453-13.147653-30.732467-8.73097-6.990237-28.234004-15.857735-58.427185-26.575187-27.128126-9.454568-48.337761-18.738477-63.594772-28.097476-15.270664-9.195165-27.660586-22.062935-37.162938-38.671574-9.570617-16.683729-14.32862-36.084367-14.328621-58.154128 0-28.950776 8.567136-55.089074 25.523922-78.25106 17.045529-23.168812 43.764071-37.306293 80.305807-42.487533v-45.716422h49.368547v45.716422c55.116379 6.648917 90.893558 37.968454 107.188183 94.006398l-68.107025 28.015558c-13.229569-38.405344-33.674647-57.642148-61.478586-57.642148-13.898557 0-25.114337 4.252849-33.490334 12.847291-8.485219 8.614921-12.724416 18.991054-12.724416 31.2581 0 12.43088 4.075363 21.967365 12.219262 28.670893 8.137073 6.669396 25.523921 14.929344 52.22881 24.6911 29.251138 10.744759 52.317554 20.963884 68.946672 30.493543 16.711035 9.543312 29.940604 22.847971 39.961765 39.620444 9.905111 16.840737 14.915691 36.528083 14.91569 59.08252 0 34.568906-10.253258 63.335369-30.793904 86.422264-20.520168 23.073243-50.112626 36.691917-88.879769 40.780932" p-id="2008"></path></svg>