<?xml version="1.0" standalone="no"?><!DOCTYPE svg PUBLIC "-//W3C//DTD SVG 1.1//EN" "http://www.w3.org/Graphics/SVG/1.1/DTD/svg11.dtd"><svg t="1513175848040" class="icon" style="" viewBox="0 0 1024 1024" version="1.1" xmlns="http://www.w3.org/2000/svg" p-id="17085" xmlns:xlink="http://www.w3.org/1999/xlink" width="200" height="200"><defs><style type="text/css"></style></defs><path d="M180.053333 481.706667 481.706667 180.053333C581.973333 80.213333 743.68 80.213333 843.946667 180.053333 943.786667 279.893333 943.786667 442.026667 843.946667 542.293333L542.293333 843.946667C442.026667 943.786667 279.893333 943.786667 180.053333 843.946667 80.213333 743.68 80.213333 581.973333 180.053333 481.706667M240.64 542.293333C195.84 586.666667 180.906667 650.24 196.266667 706.986667L451.84 451.84 632.746667 632.746667 783.36 481.706667C850.346667 415.146667 850.346667 307.2 783.36 240.64 716.8 173.653333 608.853333 173.653333 542.293333 240.64L240.64 542.293333Z" p-id="17086"></path></svg>