<?xml version="1.0" standalone="no"?><!DOCTYPE svg PUBLIC "-//W3C//DTD SVG 1.1//EN" "http://www.w3.org/Graphics/SVG/1.1/DTD/svg11.dtd"><svg t="1513175448845" class="icon" style="" viewBox="0 0 1024 1024" version="1.1" xmlns="http://www.w3.org/2000/svg" p-id="18514" xmlns:xlink="http://www.w3.org/1999/xlink" width="200" height="200"><defs><style type="text/css"></style></defs><path d="M512 85.333333a298.666667 298.666667 0 0 0-298.666667 298.666667c0 101.546667 50.773333 190.72 128 244.906667V725.333333a42.666667 42.666667 0 0 0 42.666667 42.666667h256a42.666667 42.666667 0 0 0 42.666667-42.666667v-96.426666c77.226667-54.186667 128-143.36 128-244.906667a298.666667 298.666667 0 0 0-298.666667-298.666667M384 896a42.666667 42.666667 0 0 0 42.666667 42.666667h170.666666a42.666667 42.666667 0 0 0 42.666667-42.666667v-42.666667H384v42.666667z" fill="" p-id="18515"></path></svg>