<?xml version="1.0" standalone="no"?><!DOCTYPE svg PUBLIC "-//W3C//DTD SVG 1.1//EN" "http://www.w3.org/Graphics/SVG/1.1/DTD/svg11.dtd"><svg t="1513175888339" class="icon" style="" viewBox="0 0 1024 1024" version="1.1" xmlns="http://www.w3.org/2000/svg" p-id="17472" xmlns:xlink="http://www.w3.org/1999/xlink" width="200" height="200"><defs><style type="text/css"></style></defs><path d="M234.666667 384C270.08 384 298.666667 355.413333 298.666667 320 298.666667 284.586667 270.08 256 234.666667 256 199.253333 256 170.666667 284.586667 170.666667 320 170.666667 355.413333 199.253333 384 234.666667 384M742.826667 494.08C758.186667 509.44 768 530.773333 768 554.666667 768 578.133333 758.613333 599.466667 742.826667 614.826667L529.493333 828.16C514.133333 843.52 492.8 853.333333 469.333333 853.333333 445.866667 853.333333 424.533333 843.946667 408.746667 828.16L110.506667 529.92C94.72 514.133333 85.333333 492.8 85.333333 469.333333L85.333333 256C85.333333 208.64 123.306667 170.666667 170.666667 170.666667L384 170.666667C407.466667 170.666667 428.8 180.053333 444.16 195.413333L742.826667 494.08M577.706667 243.626667 620.373333 200.96 913.493333 494.08C929.28 509.44 938.666667 531.2 938.666667 554.666667 938.666667 578.133333 929.28 599.466667 913.92 614.826667L684.373333 844.373333 641.706667 801.706667 885.333333 554.666667 577.706667 243.626667Z" p-id="17473"></path></svg>