<?xml version="1.0" standalone="no"?><!DOCTYPE svg PUBLIC "-//W3C//DTD SVG 1.1//EN" "http://www.w3.org/Graphics/SVG/1.1/DTD/svg11.dtd"><svg t="1513176444949" class="icon" style="" viewBox="0 0 1024 1024" version="1.1" xmlns="http://www.w3.org/2000/svg" p-id="18117" xmlns:xlink="http://www.w3.org/1999/xlink" width="200" height="200"><defs><style type="text/css"></style></defs><path d="M643.84 496.213333C643.84 496.213333 651.946667 441.6 682.666667 441.6 715.093333 441.6 758.613333 514.56 758.613333 514.56 758.613333 514.56 659.626667 496.213333 643.84 496.213333M810.666667 200.106667C795.306667 174.506667 718.08 145.493333 677.973333 145.493333 638.293333 145.493333 576 145.493333 576 145.493333 576 145.493333 541.866667 85.333333 464.213333 85.333333 386.133333 85.333333 391.253333 119.893333 391.253333 149.333333L391.253333 269.653333 355.84 306.773333 192 306.773333C192 306.773333 146.773333 337.493333 146.773333 402.773333 146.773333 469.333333 167.253333 697.6 304.213333 718.933333 466.346667 743.68 494.08 668.586667 494.08 659.626667 494.08 621.226667 494.933333 563.626667 494.933333 563.626667 494.933333 563.626667 542.293333 654.08 613.973333 654.08 685.653333 654.08 727.04 695.466667 727.04 737.706667 727.04 779.946667 727.04 816.213333 727.04 816.213333 727.04 816.213333 725.333333 865.28 682.666667 865.28 640 865.28 592.64 865.28 592.64 865.28 592.64 865.28 563.2 842.24 563.2 810.666667 563.2 778.666667 577.28 770.133333 594.346667 770.133333 610.986667 770.133333 625.066667 771.84 625.066667 771.84L625.066667 705.28C625.066667 705.28 489.386667 704 489.386667 808.106667 489.386667 911.786667 560.213333 938.666667 616.96 938.666667 674.133333 938.666667 709.546667 938.666667 709.546667 938.666667 709.546667 938.666667 877.226667 917.333333 877.226667 586.666667 877.226667 256 824.746667 225.28 810.666667 200.106667M320 269.226667 181.76 269.226667 354.986667 94.72 354.986667 234.666667 320 269.226667Z" p-id="18118"></path></svg>