<?xml version="1.0" standalone="no"?><!DOCTYPE svg PUBLIC "-//W3C//DTD SVG 1.1//EN" "http://www.w3.org/Graphics/SVG/1.1/DTD/svg11.dtd"><svg t="1513178039352" class="icon" style="" viewBox="0 0 1024 1024" version="1.1" xmlns="http://www.w3.org/2000/svg" p-id="8747" xmlns:xlink="http://www.w3.org/1999/xlink" width="200" height="200"><defs><style type="text/css"></style></defs><path d="M802.752 319.392c-5.312-5.312-11.168-9.824-17.344-13.824C794.24 291.072 799.616 274.208 799.616 256L799.616 224c0-52.928-43.072-96-96-96l-110.368 0.032c-10.176-1.728-38.688-26.88-58.656-51.776-6.272-7.84-15.136-11.52-25.92-12-10.016 0.288-19.36 5.28-25.184 13.44C466.88 101.152 442.464 125.664 435.104 128L320 128C267.072 128 224 171.072 224 224c0 17.664 14.336 32 32 32s32-14.336 32-32c0-17.632 14.368-32 32-32l115.104 0c27.36 0 55.296-23.552 75.84-46.24C533.44 168.288 563.904 192 592.512 192l111.136 0c17.664 0 32 14.368 32 32l0 32c0 17.632-14.336 32-32 32L320 288C318.08 288 316.416 288.768 314.592 289.088L291.36 289.088c-56.064 0-100 45.344-100.064 103.296L191.36 858.976c0 27.584 10.688 53.568 30.176 73.056 19.488 19.52 45.408 30.272 73.12 30.272l434.88 0c0.032 0 0.16 0 0.192 0 27.584 0 53.504-10.752 72.992-30.272 19.488-19.488 30.208-45.472 30.176-73.024L832.896 392.48C832.96 364.864 822.24 338.912 802.752 319.392zM768.928 859.04c0 10.496-4.064 20.384-11.456 27.776s-17.248 11.488-27.712 11.488L294.592 898.304c-10.496 0-20.32-4.096-27.744-11.488s-11.488-17.28-11.456-27.808L255.328 392.416c0-22.784 15.2-39.328 36.128-39.328l438.304 0.032c10.464 0 20.32 4.064 27.712 11.488 7.392 7.424 11.456 17.312 11.456 27.84L768.928 859.04z" p-id="8748"></path><path d="M352 544l96 0c17.664 0 32-14.336 32-32s-14.336-32-32-32l-96 0c-17.664 0-32 14.336-32 32S334.336 544 352 544z" p-id="8749"></path><path d="M512 608l-160 0c-17.664 0-32 14.304-32 32s14.336 32 32 32l160 0c17.664 0 32-14.304 32-32S529.664 608 512 608z" p-id="8750"></path><path d="M448 736l-96 0c-17.664 0-32 14.304-32 32s14.336 32 32 32l96 0c17.664 0 32-14.304 32-32S465.664 736 448 736z" p-id="8751"></path></svg>