<?xml version="1.0" standalone="no"?><!DOCTYPE svg PUBLIC "-//W3C//DTD SVG 1.1//EN" "http://www.w3.org/Graphics/SVG/1.1/DTD/svg11.dtd"><svg t="1515908148237" class="icon" style="" viewBox="0 0 1024 1024" version="1.1" xmlns="http://www.w3.org/2000/svg" p-id="5608" xmlns:xlink="http://www.w3.org/1999/xlink" width="200" height="200"><defs><style type="text/css"></style></defs><path d="M512 0C230.4 0 0 230.4 0 512s230.4 512 512 512 512-230.4 512-512S793.6 0 512 0z m0 947.2C273.066667 947.2 76.8 750.933333 76.8 512S273.066667 76.8 512 76.8 947.2 273.066667 947.2 512 750.933333 947.2 512 947.2zM657.066667 243.2c-34.133333-29.866667-81.066667-46.933333-136.533334-46.933333-64 0-115.2 17.066667-153.6 55.466666-34.133333 38.4-55.466667 89.6-55.466666 157.866667 0 21.333333 17.066667 38.4 38.4 38.4s38.4-17.066667 38.4-38.4c0-98.133333 42.666667-145.066667 128-145.066667 34.133333 0 59.733333 8.533333 81.066666 29.866667 21.333333 17.066667 29.866667 42.666667 29.866667 72.533333 0 34.133333-21.333333 68.266667-59.733333 106.666667l-29.866667 25.6c-29.866667 25.6-46.933333 46.933333-55.466667 68.266667-8.533333 17.066667-12.8 51.2-12.8 89.6v4.266666c0 21.333333 17.066667 34.133333 34.133334 34.133334s34.133333-12.8 34.133333-34.133334v-12.8c0-42.666667 21.333333-81.066667 64-115.2 68.266667-55.466667 102.4-110.933333 102.4-162.133333 8.533333-55.466667-8.533333-98.133333-46.933333-128zM465.066667 780.8c0-12.8 4.266667-25.6 12.8-34.133333 8.533333-8.533333 21.333333-12.8 34.133333-12.8 12.8 0 25.6 4.266667 34.133333 12.8 8.533333 8.533333 12.8 21.333333 12.8 34.133333 0 12.8-4.266667 25.6-12.8 34.133333-8.533333 8.533333-21.333333 12.8-34.133333 12.8-12.8 0-25.6-4.266667-34.133333-12.8-8.533333-8.533333-12.8-21.333333-12.8-34.133333z" p-id="5609"></path></svg>