<?xml version="1.0" standalone="no"?><!DOCTYPE svg PUBLIC "-//W3C//DTD SVG 1.1//EN" "http://www.w3.org/Graphics/SVG/1.1/DTD/svg11.dtd"><svg t="1514601653110" class="icon" style="" viewBox="0 0 1024 1024" version="1.1" xmlns="http://www.w3.org/2000/svg" p-id="2252" xmlns:xlink="http://www.w3.org/1999/xlink" width="200" height="200"><defs><style type="text/css"></style></defs><path d="M982.96282 313.19503a518.724697 518.724697 0 0 0-109.713345-162.814605 520.187541 520.187541 0 0 0-162.375751-109.713345A493.710054 493.710054 0 0 0 512 0.292569a493.710054 493.710054 0 0 0-198.946866 40.374511 520.187541 520.187541 0 0 0-162.229467 109.713345A518.724697 518.724697 0 0 0 40.964037 313.19503a497.074597 497.074597 0 0 0-40.374511 199.385719c0 70.655394 13.45817 136.922255 40.374511 198.873724a520.114399 520.114399 0 0 0 109.713346 162.302609 520.260683 520.260683 0 0 0 162.375751 109.713345A493.856338 493.856338 0 0 0 512 1023.918081c70.655394 0 136.995397-13.45817 198.946866-40.301369a520.260683 520.260683 0 0 0 162.229467-109.786488 520.114399 520.114399 0 0 0 109.786487-162.375751 493.710054 493.710054 0 0 0 40.374511-198.800581c0-70.728537-13.45817-137.141682-40.374511-199.38572zM512 842.598492a57.855504 57.855504 0 1 1 0-115.78415 57.855504 57.855504 0 0 1 0 115.78415z m57.855504-240.637937a57.855504 57.855504 0 0 1-115.711008 0V239.394519a57.855504 57.855504 0 1 1 115.711008 0V601.960555z" p-id="2253"></path></svg>