<?xml version="1.0" standalone="no"?><!DOCTYPE svg PUBLIC "-//W3C//DTD SVG 1.1//EN" "http://www.w3.org/Graphics/SVG/1.1/DTD/svg11.dtd"><svg t="1514601417653" class="icon" style="" viewBox="0 0 1024 1024" version="1.1" xmlns="http://www.w3.org/2000/svg" p-id="999" xmlns:xlink="http://www.w3.org/1999/xlink" width="200" height="200"><defs><style type="text/css"></style></defs><path d="M390.300696 645.010672c-61.054487 36.878992-70.110803-20.696415-70.110803-20.696415l-76.516096-193.40396c-29.447658-91.905482 25.477971-41.436412 25.477971-41.436412s47.126961 38.616042 82.897729 62.142789c35.745863 23.542935 76.492436 6.917068 76.492436 6.917068l500.252814-250.108974C836.489557 84.020896 684.035138 2.689625 511.4297 2.689625 229.742536 2.689625 1.419524 219.144667 1.419524 486.175865c0 153.613697 75.59714 290.30019 193.370339 378.894693l-21.241811 132.248611s-10.360037 38.601099 25.526533 20.698906c24.446948-12.199193 86.77029-55.972839 123.878399-82.573978a533.101104 533.101104 0 0 0 188.496639 34.23295c281.66226 0 510.033834-216.460022 510.033834-483.491221 0-77.342906-19.247006-150.386147-53.329286-215.229768-159.390165 103.863106-530.088973 345.254458-577.853475 374.054614z m0 0" fill="#41B035" p-id="1000"></path></svg>