<?xml version="1.0" encoding="UTF-8"?>
<svg width="50px" height="50px" viewBox="0 -5 50 50" version="1.1" xmlns="http://www.w3.org/2000/svg" xmlns:xlink="http://www.w3.org/1999/xlink">
  <defs>
    <linearGradient x1="50.0555556%" y1="94.1503497%" x2="50.0555556%" y2="0.436538462%" id="linearGradient-1">
      <stop stop-color="#78D431" offset="0%"></stop>
      <stop stop-color="#9EEE69" offset="100%"></stop>
      <stop stop-color="#9EEE69" offset="100%"></stop>
    </linearGradient>
    <linearGradient x1="50.0888889%" y1="93.5351252%" x2="50.0888889%" y2="-0.0360587002%" id="linearGradient-2">
      <stop stop-color="#E4E6E6" offset="0%"></stop>
      <stop stop-color="#F5F5FF" offset="100%"></stop>
    </linearGradient>
  </defs>
  <!-- <g id="Page-1" stroke="none" stroke-width="1" fill="none" fill-rule="evenodd">
    <g id="mp-new-logo_Chinese_40px-Copy">
      <g id="Full-Emblem-1-Copy">
        <g id="symbol"> -->
  <path d="M0,14.8739749 C0,19.3361674 2.43272049,23.4127383 6.19237943,26.1120893 C6.52411404,26.3324445 6.68998135,26.6629773 6.68998135,27.1036877 C6.68998135,27.2138653 6.63469225,27.3791317 6.63469225,27.4893093 C6.35824674,28.5910852 5.86064482,30.4090154 5.80535572,30.4641042 C5.75006661,30.6293706 5.69477751,30.7395482 5.69477751,30.9048146 C5.69477751,31.2353474 5.97122302,31.5107914 6.30295763,31.5107914 C6.41353584,31.5107914 6.52411404,31.4557026 6.63469225,31.4006138 L10.5602185,29.1419731 C10.836664,28.9767067 11.1683986,28.8665292 11.5001332,28.8665292 C11.6660005,28.8665292 11.8871569,28.8665292 12.0530242,28.921618 C13.8775646,29.4725059 15.8679723,29.7479499 17.9136691,29.7479499 C27.8104183,29.7479499 35.8273381,23.0822056 35.8273381,14.8739749 C35.8273381,6.66574433 27.8104183,0 17.9136691,0 C8.0169198,3.91429439e-15 0,6.66574433 0,14.8739749" id="XMLID_140_" fill="url(#linearGradient-1)"></path>
  <path d="M34.6043165,38.5014253 C36.3141487,38.5014253 37.9688249,38.2794142 39.4580336,37.8353921 C39.5683453,37.7798893 39.7338129,37.7798893 39.8992806,37.7798893 C40.17506,37.7798893 40.4508393,37.8908948 40.6714628,38.0019004 L43.9256595,39.8889945 C44.0359712,39.9444972 44.0911271,40 44.2014388,40 C44.4772182,40 44.6978417,39.7779889 44.6978417,39.5004751 C44.6978417,39.3894696 44.6426859,39.278464 44.6426859,39.1119557 C44.6426859,39.056453 44.2014388,37.5578782 43.9808153,36.6143312 C43.9256595,36.5033256 43.9256595,36.3923201 43.9256595,36.2813146 C43.9256595,35.948298 44.0911271,35.6707841 44.3669065,35.4487731 C47.5107914,33.1731596 49.4964029,29.7874908 49.4964029,26.0133026 C49.4964029,19.1309594 42.822542,13.5251799 34.6043165,13.5251799 C26.3860911,13.5251799 19.7122302,19.0754566 19.7122302,26.0133026 C19.7122302,32.8956457 26.3860911,38.5014253 34.6043165,38.5014253 Z" id="XMLID_137_" fill="url(#linearGradient-2)"></path>
  <path d="M14.2446043,10.0719424 C14.2446043,11.356868 13.2273716,12.3741007 11.942446,12.3741007 C10.6575205,12.3741007 9.64028777,11.356868 9.64028777,10.0719424 C9.64028777,8.7870169 10.6575205,7.76978417 11.942446,7.76978417 C13.2273716,7.76978417 14.2446043,8.7870169 14.2446043,10.0719424" id="XMLID_135_" fill="#187E28"></path>
  <path d="M26.1870504,10.0719424 C26.1870504,11.356868 25.1698176,12.3741007 23.8848921,12.3741007 C22.5999665,12.3741007 21.5827338,11.356868 21.5827338,10.0719424 C21.5827338,8.7870169 22.5999665,7.76978417 23.8848921,7.76978417 C25.1698176,7.76978417 26.1870504,8.7870169 26.1870504,10.0719424" id="XMLID_134_" fill="#187E28"></path>
  <path d="M37.6978417,22.1582734 C37.6978417,23.2773781 38.5931255,24.1726619 39.7122302,24.1726619 C40.8313349,24.1726619 41.7266187,23.2773781 41.7266187,22.1582734 C41.7266187,21.0391687 40.8313349,20.1438849 39.7122302,20.1438849 C38.5931255,20.1438849 37.6978417,21.0391687 37.6978417,22.1582734" id="XMLID_133_" fill="#858C8C"></path>
  <path d="M27.7697842,22.1582734 C27.7697842,23.2773781 28.6650679,24.1726619 29.7841727,24.1726619 C30.9032774,24.1726619 31.7985612,23.2773781 31.7985612,22.1582734 C31.7985612,21.0391687 30.9032774,20.1438849 29.7841727,20.1438849 C28.6650679,20.1438849 27.7697842,21.0391687 27.7697842,22.1582734" id="XMLID_132_" fill="#858C8C"></path>
  <!-- </g>
      </g>
    </g>
  </g> -->
</svg>
